<svg width="20" height="30" viewBox="0 0 20 30" fill="none" xmlns="http://www.w3.org/2000/svg">
<path d="M17.9167 3.33333V2.08333H16.6667H3.33333H2.08333V3.33333V26.6667V27.9167H3.33333H16.6667H17.9167V26.6667V3.33333ZM1.25 3.33333C1.25 2.7808 1.46949 2.25089 1.86019 1.86019C2.25089 1.46949 2.7808 1.25 3.33333 1.25H16.6667C17.2192 1.25 17.7491 1.46949 18.1398 1.86019C18.5305 2.2509 18.75 2.7808 18.75 3.33333V26.6667C18.75 27.2192 18.5305 27.7491 18.1398 28.1398C17.7491 28.5305 17.2192 28.75 16.6667 28.75H3.33333C2.7808 28.75 2.2509 28.5305 1.86019 28.1398C1.46949 27.7491 1.25 27.2192 1.25 26.6667V3.33333Z" fill="#A8ADBF" stroke="#A8ADBF" stroke-width="2.5"/>
<path d="M10.4167 23.3333C10.4167 23.4438 10.3728 23.5498 10.2947 23.628C10.2165 23.7061 10.1105 23.75 10 23.75C9.88953 23.75 9.78355 23.7061 9.70541 23.628C9.62727 23.5498 9.58337 23.4438 9.58337 23.3333C9.58337 23.2228 9.62727 23.1168 9.70541 23.0387C9.78355 22.9606 9.88953 22.9167 10 22.9167C10.1105 22.9167 10.2165 22.9606 10.2947 23.0387C10.3728 23.1168 10.4167 23.2228 10.4167 23.3333Z" fill="#A8ADBF" stroke="#A8ADBF" stroke-width="2.5"/>
</svg>
