<svg width="20" height="21" viewBox="0 0 20 21" fill="none" xmlns="http://www.w3.org/2000/svg">
<path d="M3.80718 3.95272L3.61076 3.44215L3.80718 2.93159C3.76967 3.09678 3.75 3.26772 3.75 3.44215C3.75 3.61659 3.76967 3.78753 3.80718 3.95272ZM8.75 3.44215C8.75 3.26772 8.73033 3.09678 8.69282 2.93159L8.88924 3.44215L8.69282 3.95271C8.73033 3.78752 8.75 3.61659 8.75 3.44215ZM11.3072 10.8314L11.1108 10.3208L11.3072 9.81029C11.2697 9.97548 11.25 10.1464 11.25 10.3208C11.25 10.4953 11.2697 10.6662 11.3072 10.8314ZM16.25 10.3208C16.25 10.1464 16.2303 9.97547 16.1928 9.81028L16.3892 10.3208L16.1928 10.8314C16.2303 10.6662 16.25 10.4953 16.25 10.3208ZM3.80718 17.7101L3.61076 17.1995L3.80718 16.689C3.76967 16.8542 3.75 17.0251 3.75 17.1995C3.75 17.374 3.76967 17.5449 3.80718 17.7101ZM8.75 17.1995C8.75 17.0251 8.73033 16.8542 8.69282 16.689L8.88924 17.1995L8.69282 17.7101C8.73033 17.5449 8.75 17.374 8.75 17.1995Z" fill="#A8ADBF" stroke="#A8ADBF" stroke-width="2.5"/>
</svg>
