<svg width="23" height="37" viewBox="0 0 23 37" fill="none" xmlns="http://www.w3.org/2000/svg">
<path d="M6.89514 17.257C7.26088 17.257 7.61164 17.0656 7.87026 16.725C8.12888 16.3843 8.27417 15.9223 8.27417 15.4405C8.27417 14.9587 8.12888 14.4967 7.87026 14.156C7.61164 13.8153 7.26088 13.624 6.89514 13.624C6.5294 13.624 6.17864 13.8153 5.92002 14.156C5.6614 14.4967 5.51611 14.9587 5.51611 15.4405C5.51611 15.9223 5.6614 16.3843 5.92002 16.725C6.17864 17.0656 6.5294 17.257 6.89514 17.257ZM9.65319 15.4405C9.65319 14.9587 9.79848 14.4967 10.0571 14.156C10.3157 13.8153 10.6665 13.624 11.0322 13.624H15.1693C15.535 13.624 15.8858 13.8153 16.1444 14.156C16.403 14.4967 16.5483 14.9587 16.5483 15.4405C16.5483 15.9223 16.403 16.3843 16.1444 16.725C15.8858 17.0656 15.535 17.257 15.1693 17.257H11.0322C10.6665 17.257 10.3157 17.0656 10.0571 16.725C9.79848 16.3843 9.65319 15.9223 9.65319 15.4405ZM11.0322 19.0735C10.6665 19.0735 10.3157 19.2649 10.0571 19.6056C9.79848 19.9463 9.65319 20.4083 9.65319 20.8901C9.65319 21.3718 9.79848 21.8339 10.0571 22.1745C10.3157 22.5152 10.6665 22.7066 11.0322 22.7066H15.1693C15.535 22.7066 15.8858 22.5152 16.1444 22.1745C16.403 21.8339 16.5483 21.3718 16.5483 20.8901C16.5483 20.4083 16.403 19.9463 16.1444 19.6056C15.8858 19.2649 15.535 19.0735 15.1693 19.0735H11.0322ZM11.0322 24.5231C10.6665 24.5231 10.3157 24.7145 10.0571 25.0552C9.79848 25.3958 9.65319 25.8579 9.65319 26.3396C9.65319 26.8214 9.79848 27.2835 10.0571 27.6241C10.3157 27.9648 10.6665 28.1562 11.0322 28.1562H15.1693C15.535 28.1562 15.8858 27.9648 16.1444 27.6241C16.403 27.2835 16.5483 26.8214 16.5483 26.3396C16.5483 25.8579 16.403 25.3958 16.1444 25.0552C15.8858 24.7145 15.535 24.5231 15.1693 24.5231H11.0322ZM8.27417 20.8901C8.27417 21.3718 8.12888 21.8339 7.87026 22.1745C7.61164 22.5152 7.26088 22.7066 6.89514 22.7066C6.5294 22.7066 6.17864 22.5152 5.92002 22.1745C5.6614 21.8339 5.51611 21.3718 5.51611 20.8901C5.51611 20.4083 5.6614 19.9463 5.92002 19.6056C6.17864 19.2649 6.5294 19.0735 6.89514 19.0735C7.26088 19.0735 7.61164 19.2649 7.87026 19.6056C8.12888 19.9463 8.27417 20.4083 8.27417 20.8901ZM6.89514 28.1562C7.26088 28.1562 7.61164 27.9648 7.87026 27.6241C8.12888 27.2835 8.27417 26.8214 8.27417 26.3396C8.27417 25.8579 8.12888 25.3958 7.87026 25.0552C7.61164 24.7145 7.26088 24.5231 6.89514 24.5231C6.5294 24.5231 6.17864 24.7145 5.92002 25.0552C5.6614 25.3958 5.51611 25.8579 5.51611 26.3396C5.51611 26.8214 5.6614 27.2835 5.92002 27.6241C6.17864 27.9648 6.5294 28.1562 6.89514 28.1562Z" fill="#A8ADBF"/>
<path d="M6.89513 0C6.52939 0 6.17863 0.191383 5.92001 0.532048C5.66139 0.872713 5.5161 1.33475 5.5161 1.81653H2.75805C2.02657 1.81653 1.32505 2.19929 0.807815 2.88062C0.29058 3.56195 0 4.48603 0 5.44958V32.6975C0 33.661 0.29058 34.5851 0.807815 35.2664C1.32505 35.9478 2.02657 36.3305 2.75805 36.3305H19.3064C20.0378 36.3305 20.7394 35.9478 21.2566 35.2664C21.7738 34.5851 22.0644 33.661 22.0644 32.6975V5.44958C22.0644 4.48603 21.7738 3.56195 21.2566 2.88062C20.7394 2.19929 20.0378 1.81653 19.3064 1.81653H16.5483C16.5483 1.33475 16.403 0.872713 16.1444 0.532048C15.8858 0.191383 15.535 0 15.1693 0H6.89513ZM16.5483 5.44958H19.3064V32.6975H2.75805V5.44958H5.5161V7.2661C5.5161 7.74788 5.66139 8.20992 5.92001 8.55058C6.17863 8.89125 6.52939 9.08263 6.89513 9.08263H15.1693C15.535 9.08263 15.8858 8.89125 16.1444 8.55058C16.403 8.20992 16.5483 7.74788 16.5483 7.2661V5.44958ZM8.27416 5.44958V3.63305H13.7903V5.44958H8.27416Z" fill="#A8ADBF"/>
</svg>
