<svg width="25" height="27" viewBox="0 0 25 27" fill="none" xmlns="http://www.w3.org/2000/svg">
<path d="M9.58333 3V1.9965C9.75923 2.28318 9.86111 2.63106 9.86111 3V9C9.86111 9.36894 9.75923 9.71682 9.58333 10.0035V9V3ZM9.38032 1.72794C9.38706 1.73522 9.39375 1.74258 9.40038 1.75H8.33333H2.77778H1.71073C1.71736 1.74258 1.72405 1.73522 1.73079 1.72794C2.02605 1.40906 2.40499 1.25 2.77778 1.25H8.33333C8.70613 1.25 9.08506 1.40906 9.38032 1.72794ZM1.52778 1.9965V3V9V10.0035C1.35188 9.71682 1.25 9.36894 1.25 9V3C1.25 2.63106 1.35188 2.28318 1.52778 1.9965ZM1.73079 10.2721C1.72405 10.2648 1.71736 10.2574 1.71074 10.25H2.77778H8.33333H9.40037C9.39375 10.2574 9.38706 10.2648 9.38032 10.2721C9.08506 10.5909 8.70612 10.75 8.33333 10.75H2.77778C2.40499 10.75 2.02605 10.5909 1.73079 10.2721ZM23.4722 3V1.9965C23.6481 2.28318 23.75 2.63106 23.75 3V9C23.75 9.36894 23.6481 9.71682 23.4722 10.0035V9V3ZM23.2692 1.72794C23.276 1.73522 23.2826 1.74258 23.2893 1.75H22.2222H16.6667H15.5996C15.6062 1.74258 15.6129 1.73522 15.6197 1.72794C15.9149 1.40906 16.2939 1.25 16.6667 1.25H22.2222C22.595 1.25 22.974 1.40906 23.2692 1.72794ZM15.4167 1.9965V3V9V10.0035C15.2408 9.71682 15.1389 9.36894 15.1389 9V3C15.1389 2.63106 15.2408 2.28318 15.4167 1.9965ZM15.6197 10.2721C15.6129 10.2648 15.6063 10.2574 15.5996 10.25H16.6667H22.2222H23.2893C23.2826 10.2574 23.276 10.2648 23.2692 10.2721C22.9739 10.5909 22.595 10.75 22.2222 10.75H16.6667C16.2939 10.75 15.9149 10.5909 15.6197 10.2721ZM9.58333 18V16.9965C9.75923 17.2832 9.86111 17.6311 9.86111 18V24C9.86111 24.3689 9.75923 24.7168 9.58333 25.0035V24V18ZM9.38032 16.7279C9.38706 16.7352 9.39375 16.7426 9.40038 16.75H8.33333H2.77778H1.71073C1.71736 16.7426 1.72405 16.7352 1.73079 16.7279C2.02605 16.4091 2.40499 16.25 2.77778 16.25H8.33333C8.70612 16.25 9.08506 16.4091 9.38032 16.7279ZM1.52778 16.9965V18V24V25.0035C1.35188 24.7168 1.25 24.3689 1.25 24V18C1.25 17.6311 1.35188 17.2832 1.52778 16.9965ZM1.73079 25.2721C1.72405 25.2648 1.71736 25.2574 1.71073 25.25H2.77778H8.33333H9.40038C9.39375 25.2574 9.38706 25.2648 9.38032 25.2721C9.08506 25.5909 8.70612 25.75 8.33333 25.75H2.77778C2.40499 25.75 2.02605 25.5909 1.73079 25.2721ZM23.4722 18V16.9965C23.6481 17.2832 23.75 17.6311 23.75 18V24C23.75 24.3689 23.6481 24.7168 23.4722 25.0035V24V18ZM23.2692 16.7279C23.276 16.7352 23.2826 16.7426 23.2893 16.75H22.2222H16.6667H15.5996C15.6062 16.7426 15.6129 16.7352 15.6197 16.7279C15.9149 16.4091 16.2939 16.25 16.6667 16.25H22.2222C22.595 16.25 22.9739 16.4091 23.2692 16.7279ZM15.4167 16.9965V18V24V25.0035C15.2408 24.7168 15.1389 24.3689 15.1389 24V18C15.1389 17.6311 15.2408 17.2832 15.4167 16.9965ZM15.6197 25.2721C15.6129 25.2648 15.6062 25.2574 15.5996 25.25H16.6667H22.2222H23.2893C23.2826 25.2574 23.276 25.2648 23.2692 25.2721C22.9739 25.5909 22.595 25.75 22.2222 25.75H16.6667C16.2939 25.75 15.9149 25.5909 15.6197 25.2721Z" fill="#333333" stroke="#333333" stroke-width="2.5"/>
</svg>
