<svg width="28" height="26" viewBox="0 0 28 26" fill="none" xmlns="http://www.w3.org/2000/svg">
<path d="M0.894897 2.73684C0.894897 2.01099 1.17107 1.31486 1.66266 0.801602C2.15424 0.288345 2.82098 0 3.51619 0H24.4865C25.1818 0 25.8485 0.288345 26.3401 0.801602C26.8317 1.31486 27.1078 2.01099 27.1078 2.73684V17.7895C27.1078 18.5153 26.8317 19.2115 26.3401 19.7247C25.8485 20.238 25.1818 20.5263 24.4865 20.5263H15.312V23.2632H19.244C19.5916 23.2632 19.9249 23.4073 20.1707 23.664C20.4165 23.9206 20.5546 24.2687 20.5546 24.6316C20.5546 24.9945 20.4165 25.3426 20.1707 25.5992C19.9249 25.8558 19.5916 26 19.244 26H8.75878C8.41117 26 8.07781 25.8558 7.83201 25.5992C7.58622 25.3426 7.44813 24.9945 7.44813 24.6316C7.44813 24.2687 7.58622 23.9206 7.83201 23.664C8.07781 23.4073 8.41117 23.2632 8.75878 23.2632H12.6907V20.5263H3.51619C2.82098 20.5263 2.15424 20.238 1.66266 19.7247C1.17107 19.2115 0.894897 18.5153 0.894897 17.7895V2.73684ZM24.4865 17.7895V2.73684H3.51619V17.7895H24.4865Z" fill="#0D0D0D"/>
</svg>
