<svg width="26" height="27" viewBox="0 0 26 27" fill="none" xmlns="http://www.w3.org/2000/svg">
<path d="M0 2.84211C0 2.08833 0.273928 1.36543 0.761522 0.832433C1.24912 0.299435 1.91044 0 2.6 0H23.4C24.0896 0 24.7509 0.299435 25.2385 0.832433C25.7261 1.36543 26 2.08833 26 2.84211V18.4737C26 19.2275 25.7261 19.9504 25.2385 20.4834C24.7509 21.0164 24.0896 21.3158 23.4 21.3158H14.3V24.1579H18.2C18.5448 24.1579 18.8754 24.3076 19.1192 24.5741C19.363 24.8406 19.5 25.2021 19.5 25.5789C19.5 25.9558 19.363 26.3173 19.1192 26.5838C18.8754 26.8503 18.5448 27 18.2 27H7.8C7.45522 27 7.12456 26.8503 6.88076 26.5838C6.63696 26.3173 6.5 25.9558 6.5 25.5789C6.5 25.2021 6.63696 24.8406 6.88076 24.5741C7.12456 24.3076 7.45522 24.1579 7.8 24.1579H11.7V21.3158H2.6C1.91044 21.3158 1.24912 21.0164 0.761522 20.4834C0.273928 19.9504 0 19.2275 0 18.4737V2.84211ZM23.4 18.4737V2.84211H2.6V18.4737H23.4Z" fill="#A9A9A9"/>
</svg>
