<svg width="16" height="10" viewBox="0 0 16 10" fill="none" xmlns="http://www.w3.org/2000/svg">
<path d="M0.332056 0.35322C0.544736 0.136316 0.833153 0.0144652 1.13388 0.0144652C1.43461 0.0144652 1.72303 0.136316 1.93571 0.35322L7.93862 6.47724L13.9415 0.35322C14.0462 0.242715 14.1713 0.154571 14.3097 0.0939335C14.448 0.0332961 14.5969 0.00137865 14.7474 4.36835e-05C14.898 -0.00129129 15.0474 0.0279837 15.1868 0.0861589C15.3261 0.144334 15.4528 0.230245 15.5592 0.338879C15.6657 0.447514 15.7499 0.576695 15.807 0.718886C15.864 0.861078 15.8927 1.01343 15.8914 1.16706C15.8901 1.32068 15.8588 1.47251 15.7994 1.61366C15.7399 1.75482 15.6535 1.88249 15.5452 1.98922L8.74045 8.93125C8.52777 9.14815 8.23935 9.27 7.93862 9.27C7.6379 9.27 7.34948 9.14815 7.1368 8.93125L0.332056 1.98922C0.119441 1.77225 0 1.47802 0 1.17122C0 0.864426 0.119441 0.570191 0.332056 0.35322Z" fill="#A8ADBF"/>
</svg>
