<svg width="20" height="22" viewBox="0 0 20 22" fill="none" xmlns="http://www.w3.org/2000/svg">
<path d="M10 1.25C10.1805 1.25 10.3161 1.31114 10.3839 1.36692C10.3993 1.37965 10.4092 1.39035 10.4152 1.39767C10.4157 1.39832 10.4162 1.39895 10.4167 1.39955V20.5617C10.4162 20.5623 10.4157 20.5629 10.4152 20.5636C10.4092 20.5709 10.3993 20.5816 10.3839 20.5943C10.3161 20.6501 10.1805 20.7112 10 20.7112C9.81945 20.7112 9.68387 20.6501 9.61613 20.5943C9.60068 20.5816 9.59076 20.5709 9.58483 20.5636C9.5843 20.5629 9.5838 20.5623 9.58333 20.5617V1.39955C9.5838 1.39895 9.5843 1.39832 9.58483 1.39767C9.59076 1.39035 9.60068 1.37965 9.61613 1.36692C9.68387 1.31114 9.81946 1.25 10 1.25ZM18.3333 6.74031C18.5139 6.74031 18.6495 6.80145 18.7172 6.85723C18.7327 6.86996 18.7426 6.88066 18.7485 6.88798C18.749 6.88863 18.7495 6.88926 18.75 6.88986V20.5617C18.7495 20.5623 18.749 20.5629 18.7485 20.5636C18.7426 20.5709 18.7327 20.5816 18.7172 20.5943C18.6495 20.6501 18.5139 20.7112 18.3333 20.7112C18.1528 20.7112 18.0172 20.6501 17.9495 20.5943C17.934 20.5816 17.9241 20.5709 17.9182 20.5636C17.9176 20.5629 17.9171 20.5623 17.9167 20.5617V6.88986C17.9171 6.88926 17.9176 6.88863 17.9182 6.88798C17.9241 6.88066 17.934 6.86996 17.9495 6.85723C18.0172 6.80145 18.1528 6.74031 18.3333 6.74031ZM1.66667 12.2306C1.84721 12.2306 1.98279 12.2918 2.05053 12.3475C2.06599 12.3603 2.07591 12.371 2.08184 12.3783C2.08237 12.3789 2.08286 12.3796 2.08333 12.3802V20.5617C2.08286 20.5623 2.08237 20.5629 2.08184 20.5636C2.07591 20.5709 2.06599 20.5816 2.05053 20.5943C1.98279 20.6501 1.84721 20.7112 1.66667 20.7112C1.48612 20.7112 1.35054 20.6501 1.2828 20.5943C1.26735 20.5816 1.25743 20.5709 1.2515 20.5636C1.25097 20.5629 1.25047 20.5623 1.25 20.5617V12.3802C1.25047 12.3796 1.25097 12.3789 1.2515 12.3783C1.25742 12.371 1.26735 12.3603 1.2828 12.3475C1.35054 12.2918 1.48612 12.2306 1.66667 12.2306Z" fill="#A8ADBF" stroke="#A8ADBF" stroke-width="2.5"/>
</svg>
