<svg width="28" height="32" viewBox="0 0 28 32" fill="none" xmlns="http://www.w3.org/2000/svg">
<path d="M0 4C0 2.93913 0.295002 1.92172 0.82011 1.17157C1.34522 0.421427 2.05742 0 2.80003 0H15.4002C16.1428 0 16.855 0.421427 17.3801 1.17157C17.9052 1.92172 18.2002 2.93913 18.2002 4V8C18.2002 8.53043 18.0527 9.03914 17.7901 9.41421C17.5276 9.78929 17.1715 10 16.8002 10C16.4289 10 16.0728 9.78929 15.8102 9.41421C15.5477 9.03914 15.4002 8.53043 15.4002 8V4H2.80003V28H15.4002V24C15.4002 23.4696 15.5477 22.9609 15.8102 22.5858C16.0728 22.2107 16.4289 22 16.8002 22C17.1715 22 17.5276 22.2107 17.7901 22.5858C18.0527 22.9609 18.2002 23.4696 18.2002 24V28C18.2002 29.0609 17.9052 30.0783 17.3801 30.8284C16.855 31.5786 16.1428 32 15.4002 32H2.80003C2.05742 32 1.34522 31.5786 0.82011 30.8284C0.295002 30.0783 0 29.0609 0 28V4ZM21.4104 8.586C21.673 8.21106 22.029 8.00043 22.4002 8.00043C22.7715 8.00043 23.1275 8.21106 23.3901 8.586L27.5901 14.586C27.8526 14.9611 28 15.4697 28 16C28 16.5303 27.8526 17.0389 27.5901 17.414L23.3901 23.414C23.126 23.7783 22.7724 23.9799 22.4053 23.9753C22.0382 23.9708 21.6871 23.7605 21.4275 23.3896C21.1679 23.0188 21.0207 22.5172 21.0175 21.9928C21.0143 21.4684 21.1554 20.9632 21.4104 20.586L23.2206 18H9.8001C9.4288 18 9.0727 17.7893 8.81015 17.4142C8.54759 17.0391 8.40009 16.5304 8.40009 16C8.40009 15.4696 8.54759 14.9609 8.81015 14.5858C9.0727 14.2107 9.4288 14 9.8001 14H23.2206L21.4104 11.414C21.148 11.0389 21.0005 10.5303 21.0005 10C21.0005 9.46967 21.148 8.96106 21.4104 8.586Z" fill="#A8ADBF"/>
</svg>
