<svg width="73" height="76" viewBox="0 0 73 76" fill="none" xmlns="http://www.w3.org/2000/svg">
<g clip-path="url(#clip0_7_100)">
<path d="M32.1799 0.519536C21.3297 1.94454 11.9481 8.01563 5.9883 17.4414C4.8049 19.3117 2.96564 23.1414 2.20998 25.2938C-0.114044 31.8844 -0.59881 39.4844 0.855487 46.5352C1.58264 50.0383 3.17951 54.2688 4.99025 57.4898C9.65256 65.7875 17.1807 71.9625 25.992 74.7234C28.6867 75.5547 29.7133 75.7477 31.2246 75.6734C34.8604 75.4656 37.5979 73.2984 38.9666 69.5133C39.266 68.682 39.2803 68.3852 39.3516 61.3195L39.4229 53.9867L40.4067 53.7047C44.6555 52.5023 48.2485 48.925 49.717 44.457C50.3586 42.468 50.4727 41.2805 50.4727 36.2336C50.4727 31.9883 50.4442 31.4836 50.2018 30.9492C49.6315 29.643 48.8045 29.2422 46.6944 29.2422H45.1973V25.1156C45.1973 21.4344 45.1688 20.9445 44.9264 20.4102C43.9141 18.1391 40.7774 18.1391 39.7651 20.4102C39.5227 20.9445 39.4942 21.4344 39.4942 25.1156V29.2422H36.6426H33.791V25.1156C33.791 21.4344 33.7625 20.9445 33.5201 20.4102C33.2065 19.6977 32.7502 19.2375 32.0516 18.9258C30.6258 18.3172 29.0004 18.9703 28.3588 20.4102C28.1164 20.9445 28.0879 21.4344 28.0879 25.1156V29.2422H26.5195C24.3381 29.2422 23.5254 29.6281 22.9408 30.9492C22.6985 31.4836 22.6699 31.9883 22.6699 36.2336C22.6699 41.2211 22.784 42.5422 23.3971 44.4273C24.7088 48.4055 27.817 51.8047 31.5098 53.2742C32.0944 53.5117 32.8215 53.7492 33.1209 53.8086L33.6485 53.9125V60.5477C33.6485 64.6445 33.5914 67.3758 33.5059 67.7172C33.1922 68.8898 32.0516 69.7508 30.7969 69.7656C30.4404 69.7656 29.4424 69.5727 28.5727 69.3203C23.2973 67.8508 18.749 65.1047 14.8139 61.0227C11.2637 57.3117 8.79709 53.1703 7.22873 48.2125C3.63576 36.9461 6.58713 24.2398 14.7283 15.7195C20.4029 9.81172 27.5319 6.5461 35.4307 6.27891C42.7592 6.02657 49.4461 8.25313 55.3346 12.9289C60.5672 17.0703 64.6877 23.5867 66.2988 30.2516C69.9774 45.4516 62.9625 60.8445 49.3035 67.5242C47.7352 68.2961 47.336 68.6375 46.9795 69.4984C46.1811 71.5172 47.9918 73.9367 50.0307 73.5508C50.8006 73.4172 54.6217 71.3984 56.3184 70.2406C61.8647 66.4555 66.1705 61.4234 69.1361 55.2039C70.4194 52.5172 71.2606 50.157 71.9307 47.3516C72.7149 44.0266 72.9287 41.9633 72.9145 38.0742C72.9002 34.4227 72.7434 32.8938 72.059 29.732C69.6779 18.6883 62.4207 9.17344 52.5401 4.15625C49.0469 2.375 45.7533 1.29141 41.918 0.667973C39.8649 0.326567 34.2615 0.237505 32.1799 0.519536ZM44.7695 37.8813C44.7695 42.1859 44.299 43.7148 42.36 45.7336C39.7365 48.4648 36.3147 49.0883 32.9498 47.4258C31.5668 46.743 29.9129 45.0359 29.257 43.6406C28.5584 42.1563 28.3731 40.9836 28.3731 37.8813V35.1797H36.5713H44.7695V37.8813Z" fill="#333333"/>
</g>
<defs>
<clipPath id="clip0_7_100">
<rect width="73" height="76" fill="white"/>
</clipPath>
</defs>
</svg>
