<svg width="28" height="26" viewBox="0 0 28 26" fill="none" xmlns="http://www.w3.org/2000/svg">
<path d="M14.0014 10.5857C13.5967 10.5857 13.196 10.6597 12.8222 10.8035C12.4483 10.9473 12.1086 11.1581 11.8225 11.4238C11.5364 11.6895 11.3094 12.0049 11.1545 12.352C10.9997 12.6992 10.92 13.0713 10.92 13.447C10.92 13.8228 10.9997 14.1948 11.1545 14.542C11.3094 14.8891 11.5364 15.2046 11.8225 15.4703C12.1086 15.736 12.4483 15.9467 12.8222 16.0905C13.196 16.2343 13.5967 16.3083 14.0014 16.3083C14.8186 16.3081 15.6023 16.0065 16.1801 15.4698C16.7578 14.9331 17.0823 14.2052 17.0821 13.4464C17.0819 12.6875 16.7571 11.9598 16.1791 11.4233C15.6011 10.8868 14.8172 10.5855 14 10.5857H14.0014ZM14.0014 7.20572C14.4059 7.20555 14.8063 7.1314 15.1799 6.98752C15.5536 6.84363 15.893 6.63282 16.1789 6.36712C16.4647 6.10143 16.6915 5.78605 16.8461 5.43899C17.0007 5.09193 17.0802 4.72 17.08 4.34442C17.0798 3.96884 16.9999 3.59697 16.845 3.25004C16.69 2.90312 16.463 2.58793 16.1769 2.32247C15.8907 2.05702 15.5511 1.8465 15.1774 1.70293C14.8036 1.55935 14.4031 1.48555 13.9986 1.48572C13.1817 1.48606 12.3985 1.78771 11.8211 2.32431C11.2438 2.86091 10.9196 3.5885 10.92 4.34702C10.9204 5.10554 11.2452 5.83285 11.8231 6.36896C12.401 6.90507 13.1845 7.20606 14.0014 7.20572V7.20572ZM14.0014 19.6857C13.1841 19.6857 12.4004 19.9872 11.8225 20.5238C11.2446 21.0604 10.92 21.7882 10.92 22.547C10.92 23.3059 11.2446 24.0337 11.8225 24.5703C12.4004 25.1069 13.1841 25.4083 14.0014 25.4083C14.8186 25.4083 15.6024 25.1069 16.1803 24.5703C16.7581 24.0337 17.0828 23.3059 17.0828 22.547C17.0828 21.7882 16.7581 21.0604 16.1803 20.5238C15.6024 19.9872 14.8186 19.6857 14.0014 19.6857V19.6857Z" fill="black"/>
</svg>
