<svg width="28" height="26" viewBox="0 0 28 26" fill="none" xmlns="http://www.w3.org/2000/svg">
<path d="M14.0013 10.5857C13.5967 10.5857 13.196 10.6597 12.8221 10.8035C12.4483 10.9473 12.1086 11.1581 11.8224 11.4238C11.5363 11.6895 11.3093 12.0049 11.1545 12.352C10.9996 12.6992 10.9199 13.0713 10.9199 13.447C10.9199 13.8228 10.9996 14.1948 11.1545 14.542C11.3093 14.8891 11.5363 15.2046 11.8224 15.4703C12.1086 15.736 12.4483 15.9467 12.8221 16.0905C13.196 16.2343 13.5967 16.3083 14.0013 16.3083C14.8186 16.3081 15.6023 16.0065 16.18 15.4698C16.7577 14.9331 17.0822 14.2052 17.082 13.4464C17.0818 12.6875 16.757 11.9598 16.179 11.4233C15.601 10.8868 14.8172 10.5855 13.9999 10.5857H14.0013ZM14.0013 7.20572C14.4058 7.20555 14.8063 7.1314 15.1799 6.98752C15.5535 6.84363 15.8929 6.63282 16.1788 6.36712C16.4647 6.10143 16.6914 5.78605 16.846 5.43899C17.0006 5.09193 17.0801 4.72 17.0799 4.34442C17.0797 3.96884 16.9999 3.59697 16.8449 3.25004C16.69 2.90312 16.463 2.58793 16.1768 2.32247C15.8907 2.05702 15.551 1.8465 15.1773 1.70293C14.8035 1.55935 14.403 1.48555 13.9985 1.48572C13.1817 1.48606 12.3984 1.78771 11.821 2.32431C11.2437 2.86091 10.9196 3.5885 10.9199 4.34702C10.9203 5.10554 11.2451 5.83285 11.823 6.36896C12.4009 6.90507 13.1845 7.20606 14.0013 7.20572V7.20572ZM14.0013 19.6857C13.1841 19.6857 12.4003 19.9872 11.8224 20.5238C11.2446 21.0604 10.9199 21.7882 10.9199 22.547C10.9199 23.3059 11.2446 24.0337 11.8224 24.5703C12.4003 25.1069 13.1841 25.4083 14.0013 25.4083C14.8186 25.4083 15.6023 25.1069 16.1802 24.5703C16.7581 24.0337 17.0827 23.3059 17.0827 22.547C17.0827 21.7882 16.7581 21.0604 16.1802 20.5238C15.6023 19.9872 14.8186 19.6857 14.0013 19.6857V19.6857Z" fill="black"/>
</svg>
