<svg width="145" height="156" viewBox="0 0 145 156" fill="none" xmlns="http://www.w3.org/2000/svg">
<path d="M83.0344 46.1781C82.1484 46.4565 81.3609 47.091 80.8687 47.9037C80.5953 48.3379 80.3437 49.3176 80.3437 49.8965V50.4197L79.2828 50.4865C75.5422 50.7092 72.4141 53.2029 71.2984 56.8545L70.9922 57.8565V76.7266V95.5967L71.2984 96.5986C72.1734 99.482 74.3937 101.742 77.2266 102.633L78.2109 102.944H88H97.7891L98.7734 102.633C102.394 101.497 104.953 98.135 104.997 94.4834C105.008 93.4926 104.975 93.3256 104.745 92.9471C104.603 92.7133 104.286 92.3904 104.045 92.2234C103.673 91.9674 103.477 91.9229 102.875 91.9229C102.273 91.9229 102.077 91.9674 101.705 92.2234C101.059 92.6576 100.808 93.1363 100.677 94.2051C100.425 96.3203 99.4297 97.6785 97.6906 98.2908C97.1766 98.4801 96.5094 98.4912 87.9453 98.4912H78.7578L78.1234 98.2352C76.9094 97.7342 75.9906 96.7545 75.5641 95.4965C75.3781 94.9621 75.3672 93.9602 75.3672 76.7266C75.3672 59.493 75.3781 58.491 75.5641 57.9566C75.9906 56.6986 76.9203 55.7078 78.1234 55.2291C78.6812 55.0065 79.0312 54.9731 81 54.9174C83.1109 54.8506 83.2641 54.8395 83.6578 54.5834C83.8875 54.4387 84.2047 54.1158 84.3687 53.8709C84.6422 53.4479 84.6641 53.3254 84.6969 51.9338L84.7406 50.4531H88H91.2594L91.3031 51.9338C91.3359 53.3254 91.3578 53.4479 91.6312 53.8709C91.7953 54.1158 92.1125 54.4387 92.3422 54.5834C92.7359 54.8395 92.8891 54.8506 95 54.9174C96.9687 54.9731 97.3187 55.0065 97.8766 55.2291C99.0359 55.6967 99.8891 56.565 100.392 57.8119L100.633 58.4131L100.687 70.9932L100.742 83.5732L101.005 83.9963C101.147 84.2301 101.464 84.5529 101.705 84.7199C102.077 84.9648 102.273 85.0205 102.864 85.0205C103.728 85.0205 104.264 84.7422 104.712 84.0408L105.008 83.5844V70.726V57.8565L104.702 56.8545C103.586 53.2029 100.458 50.7092 96.7281 50.4865L95.6562 50.4197V49.8965C95.6562 48.85 95.175 47.7367 94.4422 47.0465C93.3375 46.0334 93.1406 46 87.9562 46.0111C84.3906 46.0111 83.4719 46.0445 83.0344 46.1781Z" fill="#333333"/>
<path d="M83.0234 71.6277C81.6453 74.1437 80.4531 76.3592 80.3765 76.5484C80.1687 77.1273 80.2125 77.6617 80.5406 78.2963C80.7812 78.775 80.9562 78.9531 81.4265 79.198L82.0062 79.5098H84.4015C85.725 79.5098 86.7968 79.5432 86.7968 79.5877C86.7968 79.6434 86.1297 81.5471 85.3203 83.8404C84.5109 86.1227 83.8437 88.0598 83.8437 88.1266C83.8437 88.5496 84.5437 88.7611 85.014 88.4939C85.375 88.2824 95.6562 76.2812 95.8422 75.8359C96.1375 75.1457 95.8203 74.1771 95.1859 73.7986C95.0218 73.7096 94.0922 73.6428 92.1453 73.6094L89.3453 73.5537L91.2922 70.3809C92.364 68.633 93.239 67.1746 93.239 67.1189C93.25 67.0744 91.5109 67.041 89.4 67.041L85.539 67.0521L83.0234 71.6277Z" fill="#333333"/>
<mask id="mask0_7_75" style="mask-type:alpha" maskUnits="userSpaceOnUse" x="0" y="0" width="145" height="156">
<path d="M84.5 31V0L24 7.5L0 60.5L9 108L24 126L42 155.5H84.5H123.5L145 139L84.5 31Z" fill="#D9D9D9"/>
</mask>
<g mask="url(#mask0_7_75)">
<path d="M156.5 75.5C156.5 109.286 126.087 137.5 87.5 137.5C48.9133 137.5 18.5 109.286 18.5 75.5C18.5 41.7142 48.9133 13.5 87.5 13.5C126.087 13.5 156.5 41.7142 156.5 75.5Z" stroke="#4962E4" stroke-width="10"/>
</g>
</svg>
