<svg width="72" height="70" viewBox="0 0 72 70" fill="none" xmlns="http://www.w3.org/2000/svg">
<path d="M48.5859 2.48828C46.8984 3.34961 44.0719 7.13672 40.6828 13.0566C38.7703 16.3926 37.8281 18.252 37.8281 18.6621C37.8281 19.1406 38.4188 19.6875 38.925 19.6875C39.5438 19.6875 39.8672 19.291 40.9922 17.1035C43.8609 11.5254 48.6141 4.51172 49.5141 4.51172C50.0625 4.51172 52.5516 7.76563 54.8156 11.416C59.0906 18.3477 62.4656 25.7715 63.6328 30.8438C64.6875 35.4375 63.8719 39.9082 61.2703 43.8047C59.7516 46.0742 57.7688 47.7832 55.3359 48.9453C53.6766 49.7383 52.1297 50.1484 50.3156 50.2715C49.2188 50.3398 48.9656 50.4082 48.6984 50.668C48.2625 51.0918 48.2766 51.7344 48.7266 52.1582C49.1203 52.5547 49.7531 52.5957 51.5531 52.3496C59.6109 51.2695 65.8125 44.2012 66.3188 35.5469C66.4734 32.9902 66.0234 30.5566 64.6734 26.6055C61.4391 17.1582 54.1828 4.85352 50.5125 2.58398C49.7531 2.11914 49.3453 2.0918 48.5859 2.48828Z" fill="#333333"/>
<path d="M24.8203 9.14649C22.0922 10.6641 17.0578 17.8418 12.5297 26.6602C9.15468 33.2363 6.975 38.7871 6.03281 43.2441C5.14687 47.4688 5.82187 52.1445 7.94531 56.3965C11.3062 63.1367 17.6766 67.3887 24.9469 67.7715C33.3281 68.209 41.1891 63.0273 44.5078 54.8926C45.5906 52.2129 46.0406 49.916 46.0406 46.8945C46.0406 44.4199 45.8578 43.3535 44.9437 40.2363C42.1594 30.8438 34.0734 16.0645 28.7859 10.7051C27.5906 9.50196 26.4797 8.75 25.875 8.75C25.6781 8.75 25.2141 8.92774 24.8203 9.14649ZM26.6906 11.6074C29.2219 14 34.2141 21.7656 37.9547 29.1211C41.1609 35.4238 43.0875 40.5918 43.6781 44.4746C44.2125 47.9473 43.4672 52.2129 41.7516 55.5352C39.8812 59.1992 36.7453 62.2891 33.2578 63.916C30.5859 65.1738 28.9687 65.5293 25.875 65.543C23.7797 65.543 23.4 65.5156 22.05 65.1738C18.5062 64.2852 15.8766 62.7813 13.3172 60.1699C8.95781 55.6992 7.03125 49.2461 8.29687 43.2305C9.68906 36.5313 15.0891 25.4297 21.375 16.2695C23.5266 13.1523 25.3125 11.0742 25.875 11.0742C26.0156 11.0742 26.3812 11.3203 26.6906 11.6074Z" fill="#333333"/>
<path d="M35.5078 43.5039C35.0016 43.791 34.9172 44.0508 34.8328 45.5137C34.5797 49.6426 32.5547 53.6074 29.4469 56.082C27.8156 57.3672 27.7031 57.5039 27.7031 57.9688C27.7031 58.5156 28.2516 59.0625 28.8 59.0625C29.3484 59.0625 30.6984 58.0508 32.2172 56.5059C35.1422 53.5117 36.8016 49.8203 37.0828 45.6504C37.1812 44.1465 37.0687 43.75 36.4641 43.4902C36.0422 43.2988 35.8594 43.3125 35.5078 43.5039Z" fill="#333333"/>
</svg>
