<svg width="174" height="44" viewBox="0 0 174 44" fill="none" xmlns="http://www.w3.org/2000/svg">
<path d="M93.5384 0.185731C92.2594 0.763577 90.1172 3.30427 87.5487 7.27581C86.0992 9.51382 85.3851 10.7612 85.3851 11.0364C85.3851 11.3574 85.8328 11.7243 86.2164 11.7243C86.6854 11.7243 86.9305 11.4583 87.7831 9.99077C89.9573 6.24853 93.5597 1.54321 94.2418 1.54321C94.6575 1.54321 96.5439 3.72619 98.2598 6.17515C101.5 10.8254 104.058 15.8059 104.942 19.2088C105.742 22.2906 105.123 25.2899 103.152 27.904C102.001 29.4266 100.498 30.5731 98.6541 31.3527C97.3965 31.8847 96.2242 32.1599 94.8493 32.2424C94.018 32.2883 93.8261 32.3342 93.6236 32.5084C93.2932 32.7928 93.3039 33.2239 93.645 33.5082C93.9434 33.7742 94.423 33.8017 95.7872 33.6366C101.894 32.912 106.594 28.17 106.978 22.364C107.095 20.6488 106.754 19.0162 105.731 16.3654C103.28 10.0275 97.7802 1.77252 94.9985 0.249936C94.423 -0.0619171 94.1139 -0.0802614 93.5384 0.185731Z" fill="#333333"/>
<path d="M75.5267 4.65253C73.4591 5.67064 69.6435 10.486 66.2117 16.4021C63.6538 20.8139 62.0019 24.5378 61.2878 27.5279C60.6164 30.3621 61.1279 33.499 62.7373 36.3515C65.2845 40.8734 70.1125 43.7259 75.6226 43.9828C81.9747 44.2763 87.9324 40.8 90.4476 35.3426C91.2683 33.5448 91.6094 32.0039 91.6094 29.9769C91.6094 28.3167 91.4708 27.6013 90.778 25.51C88.6678 19.2087 82.5395 9.29364 78.5322 5.69815C77.6263 4.891 76.7843 4.38653 76.326 4.38653C76.1768 4.38653 75.8251 4.50577 75.5267 4.65253ZM76.9442 6.30352C78.8626 7.90864 82.6461 13.1184 85.4811 18.0531C87.9111 22.2814 89.3712 25.7485 89.8188 28.3534C90.2238 30.6831 89.659 33.5448 88.3587 35.7737C86.9412 38.2318 84.5645 40.3047 81.9214 41.3962C79.8964 42.24 78.6707 42.4785 76.326 42.4877C74.738 42.4877 74.4502 42.4693 73.4271 42.24C70.7413 41.6439 68.7483 40.6349 66.8086 38.883C63.5046 35.8837 62.0445 31.5545 63.0037 27.5187C64.0588 23.0244 68.1514 15.5766 72.9155 9.43122C74.5462 7.33997 75.8997 5.9458 76.326 5.9458C76.4326 5.9458 76.7097 6.1109 76.9442 6.30352Z" fill="#333333"/>
<path d="M83.6266 27.7022C83.243 27.8948 83.179 28.0691 83.1151 29.0505C82.9232 31.8205 81.3885 34.4804 79.0331 36.1406C77.7968 37.0028 77.7115 37.0945 77.7115 37.4064C77.7115 37.7733 78.1272 38.1401 78.5429 38.1401C78.9585 38.1401 79.9817 37.4614 81.1327 36.4249C83.3495 34.4162 84.6072 31.9398 84.8203 29.1422C84.8949 28.1333 84.8097 27.8673 84.3514 27.693C84.0316 27.5646 83.8931 27.5738 83.6266 27.7022Z" fill="#333333"/>
<path d="M9.2045 0.130116C8.52733 0.345207 7.9254 0.835613 7.5492 1.46368C7.34019 1.79922 7.14791 2.55634 7.14791 3.00373V3.4081L6.33698 3.45972C3.47781 3.63179 1.08682 5.559 0.234084 8.38099L0 9.15532V23.7385V38.3216L0.234084 39.0959C0.902894 41.3243 2.6 43.0708 4.76527 43.7591L5.51769 44H13H20.4823L21.2347 43.7591C24.0019 42.8815 25.9582 40.2832 25.9916 37.4612C26 36.6955 25.9749 36.5665 25.7994 36.2739C25.6907 36.0933 25.4482 35.8438 25.2643 35.7147C24.9801 35.5168 24.8296 35.4824 24.3698 35.4824C23.91 35.4824 23.7595 35.5168 23.4752 35.7147C22.982 36.0503 22.7897 36.4202 22.6894 37.2462C22.4971 38.8808 21.7363 39.9305 20.4071 40.4037C20.0141 40.5499 19.5042 40.5586 12.9582 40.5586H5.93569L5.4508 40.3607C4.52283 39.9735 3.82058 39.2164 3.49453 38.2442C3.35241 37.8312 3.34405 37.0569 3.34405 23.7385C3.34405 10.4201 3.35241 9.64573 3.49453 9.23275C3.82058 8.26054 4.53119 7.49482 5.4508 7.12486C5.87717 6.95279 6.14469 6.92698 7.64952 6.88396C9.26302 6.83234 9.38006 6.82374 9.68103 6.62585C9.85659 6.51401 10.099 6.2645 10.2244 6.07522C10.4334 5.74828 10.4502 5.65364 10.4752 4.57819L10.5087 3.43391H13H15.4913L15.5248 4.57819C15.5498 5.65364 15.5666 5.74828 15.7756 6.07522C15.901 6.2645 16.1434 6.51401 16.319 6.62585C16.6199 6.82374 16.737 6.83234 18.3505 6.88396C19.8553 6.92698 20.1228 6.95279 20.5492 7.12486C21.4354 7.48622 22.0875 8.1573 22.472 9.1209L22.6559 9.5855L22.6977 19.3076L22.7396 29.0297L22.9402 29.3566C23.0489 29.5373 23.2913 29.7868 23.4752 29.9159C23.7595 30.1051 23.91 30.1482 24.3614 30.1482C25.0219 30.1482 25.4315 29.9331 25.7743 29.391L26 29.0383V19.1011V9.15532L25.7659 8.38099C24.9132 5.559 22.5222 3.63179 19.6714 3.45972L18.8521 3.4081V3.00373C18.8521 2.19499 18.4842 1.33462 17.9241 0.801199C17.0797 0.018269 16.9293 -0.00754187 12.9666 0.00106175C10.2412 0.00106175 9.53891 0.0268726 9.2045 0.130116Z" fill="#333333"/>
<path d="M9.19616 19.798C8.14278 21.7424 7.23153 23.4546 7.17301 23.6008C7.01417 24.0482 7.04761 24.4612 7.29841 24.9516C7.48233 25.3216 7.61609 25.4592 7.97558 25.6485L8.41867 25.8894H10.2495C11.2611 25.8894 12.0804 25.9152 12.0804 25.9496C12.0804 25.9926 11.5704 27.4639 10.9518 29.2362C10.3331 31 9.82317 32.497 9.82317 32.5486C9.82317 32.8755 10.3582 33.039 10.7177 32.8325C10.9936 32.6691 18.8521 23.3943 18.9942 23.0502C19.22 22.5168 18.9775 21.7683 18.4926 21.4757C18.3672 21.4069 17.6566 21.3553 16.1685 21.3295L14.0283 21.2865L15.5164 18.8344C16.3357 17.4837 17.0045 16.3566 17.0045 16.3136C17.0129 16.2791 15.6836 16.2533 14.0701 16.2533L11.119 16.2619L9.19616 19.798Z" fill="#333333"/>
<path d="M149.967 0.0980725C143.565 0.930339 138.03 4.47614 134.514 9.98124C133.816 11.0736 132.731 13.3103 132.285 14.5674C130.914 18.4166 130.628 22.8554 131.486 26.9734C131.915 29.0193 132.857 31.4901 133.925 33.3714C136.676 38.2176 141.117 41.8241 146.316 43.4366C147.906 43.9221 148.512 44.0348 149.403 43.9915C151.548 43.8701 153.163 42.6044 153.971 40.3937C154.147 39.9082 154.156 39.7348 154.198 35.6081L154.24 31.3254L154.82 31.1607C157.327 30.4585 159.447 28.3691 160.313 25.7596C160.692 24.5979 160.759 23.9044 160.759 20.9568C160.759 18.4773 160.742 18.1825 160.599 17.8704C160.263 17.1075 159.775 16.8735 158.53 16.8735H157.647V14.4633C157.647 12.3133 157.63 12.0272 157.487 11.7151C156.89 10.3887 155.039 10.3887 154.442 11.7151C154.299 12.0272 154.282 12.3133 154.282 14.4633V16.8735H152.6H150.917V14.4633C150.917 12.3133 150.9 12.0272 150.757 11.7151C150.572 11.299 150.303 11.0302 149.891 10.8482C149.05 10.4927 148.091 10.8742 147.712 11.7151C147.569 12.0272 147.553 12.3133 147.553 14.4633V16.8735H146.627C145.34 16.8735 144.861 17.0989 144.516 17.8704C144.373 18.1825 144.356 18.4773 144.356 20.9568C144.356 23.8697 144.423 24.6413 144.785 25.7423C145.559 28.0657 147.393 30.051 149.571 30.9093C149.916 31.048 150.345 31.1867 150.522 31.2214L150.833 31.2821V35.1573C150.833 37.5501 150.8 39.1453 150.749 39.3447C150.564 40.0295 149.891 40.5324 149.151 40.541C148.941 40.541 148.352 40.4283 147.839 40.281C144.726 39.4227 142.043 37.8188 139.721 35.4347C137.626 33.2674 136.171 30.8486 135.246 27.953C133.126 21.3729 134.867 13.9518 139.671 8.97559C143.019 5.52515 147.224 3.61787 151.885 3.46182C156.208 3.31444 160.154 4.61485 163.628 7.34573C166.715 9.76451 169.146 13.5704 170.096 17.463C172.267 26.3405 168.128 35.3307 160.069 39.232C159.144 39.6828 158.909 39.8822 158.698 40.385C158.227 41.564 159.296 42.9772 160.498 42.7517C160.953 42.6737 163.207 41.4947 164.208 40.8185C167.48 38.6078 170.021 35.6688 171.77 32.0363C172.528 30.4671 173.024 29.0887 173.419 27.4502C173.882 25.5082 174.008 24.3032 174 22.0318C173.991 19.8991 173.899 19.0061 173.495 17.1595C172.09 10.7095 167.808 5.15236 161.979 2.22209C159.918 1.18175 157.975 0.548884 155.712 0.184767C154.501 -0.0146303 151.195 -0.066647 149.967 0.0980725ZM157.394 21.9191C157.394 24.4332 157.117 25.3262 155.973 26.5052C154.425 28.1004 152.406 28.4645 150.421 27.4935C149.605 27.0947 148.629 26.0977 148.242 25.2828C147.83 24.4159 147.721 23.731 147.721 21.9191V20.3412H152.558H157.394V21.9191Z" fill="#333333"/>
</svg>
